<svg id="Layer_1" data-name="Layer 1" xmlns="http://www.w3.org/2000/svg" viewBox="0 0 475 111">
    <defs>
        <style>.cls-1{fill:#ffffff}</style>
    </defs>
    <path class="cls-1"
        d="M68.47,46.66a9.61,9.61,0,0,1-6.83-2.82l-7.23-7.23,3.07.62a13.08,13.08,0,0,0,2.59.26c3.43,0,5.07-.47,9.35-3.57S86.67,20.42,86.8,20.31A5.88,5.88,0,1,1,94,29.64l-19.64,15a9.69,9.69,0,0,1-5.86,2" />
    <path class="cls-1"
        d="M55.46,35a6.1,6.1,0,0,1-2.86-.68c-1.67-.9-3.43-2.78-5.39-5a6.1,6.1,0,0,1,.2-8.38,5.87,5.87,0,0,1,8.31,0L65.8,31.1l-1,.62c-.2.12-5.1,3-8.82,3.29l-.48,0" />
    <path class="cls-1"
        d="M90.29,91.88a5.84,5.84,0,0,1-4.67-2.3l-15-19.64a9.68,9.68,0,0,1-2-5.86,9.56,9.56,0,0,1,2.82-6.83L78.65,50,78,53.09a12.37,12.37,0,0,0-.26,2.59c0,3.43.47,5.07,3.56,9.35S94.84,82.28,94.94,82.41a5.9,5.9,0,0,1-1.08,8.26,5.83,5.83,0,0,1-3.57,1.21" />
    <path class="cls-1"
        d="M83.54,60.37c-.12-.2-3-5.1-3.29-8.83a6.13,6.13,0,0,1,.66-3.33c.89-1.67,2.77-3.43,5-5.39A6.13,6.13,0,0,1,90,41.24,6,6,0,0,1,94.24,43a5.88,5.88,0,0,1,0,8.31L84.16,61.41Z" />
    <path class="cls-1"
        d="M28.6,91.91a5.84,5.84,0,0,1-4.67-2.3A5.9,5.9,0,0,1,25,81.36l19.64-15a9.68,9.68,0,0,1,5.86-2,9.56,9.56,0,0,1,6.83,2.82l7.23,7.22-3.07-.62a13.08,13.08,0,0,0-2.59-.26c-3.43,0-5.07.47-9.35,3.57S32.32,90.58,32.19,90.69a5.9,5.9,0,0,1-3.59,1.22" />
    <path class="cls-1"
        d="M67.42,91.71A5.82,5.82,0,0,1,63.27,90L53.19,79.9l1-.61c.2-.13,5.1-3,8.82-3.3l.48,0a6.13,6.13,0,0,1,2.86.68c1.67.9,3.43,2.78,5.39,5a6.08,6.08,0,0,1-.2,8.37,5.85,5.85,0,0,1-4.16,1.72" />
    <path class="cls-1"
        d="M41,57.92a12.53,12.53,0,0,0,.26-2.6c0-3.43-.47-5.07-3.57-9.35s-13.5-17.25-13.6-17.38a5.87,5.87,0,0,1,4.65-9.47,5.84,5.84,0,0,1,4.67,2.3l15,19.65a9.66,9.66,0,0,1-.84,12.68L40.34,61Z" />
    <path class="cls-1"
        d="M29,69.76A6,6,0,0,1,24.75,68a5.88,5.88,0,0,1,0-8.31L34.83,49.59l.62,1c.12.21,3,5.1,3.29,8.83a6.2,6.2,0,0,1-.66,3.33c-.89,1.67-2.78,3.43-5,5.39A6.13,6.13,0,0,1,29,69.76" />
    <path class="cls-1"
        d="M125.56,68.41c.06-1.44.08-2.9.08-4.38V42.33q-3,.16-7.06.62l-2.17.3-.89.14V38.87h28.68v4.51q-2.9-.48-6.14-.8c-1-.09-2.31-.18-4.06-.27V64c0,2.77.09,5.54.25,8.3l.25,3.87h-9.37c.18-2.42.33-5,.43-7.79" />
    <path class="cls-1"
        d="M163.72,38.5,173.88,64q.94,2.4,1.86,4.38t2.1,4.43c.66,1.37,1.25,2.5,1.76,3.38H168.86l-.14-.6-.07-.25c0-.1-.06-.21-.09-.34-.38-1.55-.66-2.61-.85-3.16-.74-2.48-1.35-4.42-1.83-5.85-.19-.56-.58-1.6-1.17-3.14l-.35-.86-.79-.09c-.7-.07-1.45-.11-2.24-.13h-4.82c-1.84,0-3.34,0-4.49.16q-1.7,4.35-3.68,10l-1,3a11.44,11.44,0,0,0-.38,1.3h-6.25c1.15-2.21,2.4-4.76,3.73-7.66q.84-1.85,1.89-4.25L157,39.09ZM153.29,58.41c.49.05,1.48.08,3,.08h4.52c.45,0,1,0,1.6-.05.28,0,.51,0,.67,0L158.18,46Z" />
    <path class="cls-1"
        d="M210.91,38.82c-.83,1.28-2.16,3.56-4,6.82-1,1.78-1.91,3.59-2.83,5.41l-6,11.48q-1.65,2.89-3.25,5.89-1.12,2.1-2.29,4.42,8.85-.14,14.69-.69c1.86-.16,3.46-.32,4.82-.49v4.52H180.27c1.41-2.15,2.95-4.63,4.63-7.47q1.62-2.76,2.72-4.73l7.58-12.92q2.53-4.26,5-8.87-7.74.16-13.77.66c-1.79.13-3.3.29-4.55.49v-4.5Z" />
    <path class="cls-1"
        d="M236.58,38.45l10.16,25.48q.94,2.42,1.86,4.39t2.1,4.43c.66,1.37,1.25,2.5,1.76,3.38H241.72l-.14-.59c0-.08,0-.17-.07-.27s-.06-.21-.09-.33c-.38-1.55-.66-2.61-.84-3.17-.74-2.47-1.36-4.42-1.84-5.84-.19-.56-.58-1.6-1.17-3.14l-.35-.86-.79-.08c-.7-.08-1.45-.12-2.24-.14h-4.82c-1.84,0-3.34.06-4.49.17q-1.69,4.35-3.67,10l-1,2.95a10.87,10.87,0,0,0-.38,1.3h-6.25c1.15-2.21,2.4-4.76,3.73-7.67q.84-1.83,1.89-4.25l10.64-25.19ZM226.15,58.37c.49.06,1.49.08,3,.08h4.52c.45,0,1,0,1.6-.06a5.82,5.82,0,0,0,.67,0L231,46Z" />
    <path class="cls-1"
        d="M301.52,44.46a9.91,9.91,0,0,0-2.29-1.59,16.57,16.57,0,0,0-3.12-1.19,16.29,16.29,0,0,0-4.41-.51,11,11,0,0,0-4.6,1,11.5,11.5,0,0,0-4,3,15.3,15.3,0,0,0-2.88,5.19,22.24,22.24,0,0,0-1,7.07,23.81,23.81,0,0,0,.79,6.22,16.3,16.3,0,0,0,2.3,5.08,11.78,11.78,0,0,0,3.75,3.51A10.16,10.16,0,0,0,291,73.53a17.81,17.81,0,0,0,5.93-1.09c-.16-1-.34-2.74-.52-5.19q-.33-4.27-.36-7.5c-1.41.09-2.3.17-2.68.22l-.81.11V56.24l11.74.51v7.38c0,1,0,1.69,0,2.14v2a42.32,42.32,0,0,0,.22,4.49l.08.6c0,.28.06.63.13,1a46.78,46.78,0,0,1-8.38,2.09,32.24,32.24,0,0,1-4.79.38,26.83,26.83,0,0,1-8.75-1.33,18.88,18.88,0,0,1-6.75-3.88,17.13,17.13,0,0,1-4.37-6.11,20.21,20.21,0,0,1-1.52-8,22,22,0,0,1,1.64-8.8,16.78,16.78,0,0,1,4.63-6.3A18.82,18.82,0,0,1,283.08,39a27.59,27.59,0,0,1,8.13-1.17,32.08,32.08,0,0,1,8.55,1,14.08,14.08,0,0,1,2.62,1.06Z" />
    <path class="cls-1"
        d="M345,75.83a7.87,7.87,0,0,1-1.36.43,10.58,10.58,0,0,1-2.4.24,12.72,12.72,0,0,1-2.22-.19q-6.32-1.22-10.16-11.89a21.4,21.4,0,0,0-2.27-4.3A9.23,9.23,0,0,0,324.55,58a4.38,4.38,0,0,0-2.05-.87l-.76-3.1h.86a9,9,0,0,0,2.49-.33,5.29,5.29,0,0,0,2.76-1.71,6.36,6.36,0,0,0,1.3-4.21q0-3.25-1.68-4.69a4.91,4.91,0,0,0-1.91-1,13.45,13.45,0,0,0-2.75-.39c-.56,0-1,0-1.24,0s-.77,0-1.49,0V63.82q0,4.37.33,8.31c.06,1,.17,2.32.36,3.87H311.2l.1-1.21c.13-2,.24-4.43.35-7.39.06-1.61.08-3.18.08-4.74V50.92q0-4-.36-8.36c-.13-1.66-.25-3-.36-3.89h4.55q2.08,0,3.57-.12c1.66-.07,2.92-.11,3.79-.11s1.84,0,2.81.09a32.68,32.68,0,0,1,3.79.51,8.41,8.41,0,0,1,5.55,2.75,8.13,8.13,0,0,1,1.87,5.52,7.75,7.75,0,0,1-2.35,5.93,10.7,10.7,0,0,1-6,2.6,9.31,9.31,0,0,1,2.42.91,14.14,14.14,0,0,1,2.51,1.63,14.33,14.33,0,0,1,2.23,2.36,13,13,0,0,1,1.64,2.86,48.47,48.47,0,0,0,4,7.65,13.14,13.14,0,0,0,2.76,3.17,3.83,3.83,0,0,0,.76.51l.27.14Z" />
    <path class="cls-1"
        d="M356.72,75.49a20.11,20.11,0,0,1-6.81-3.86,17.27,17.27,0,0,1-4.51-6.13,19.51,19.51,0,0,1-1.58-7.94,20,20,0,0,1,3.1-11.31,17.79,17.79,0,0,1,7.76-6.44,24.71,24.71,0,0,1,10.18-2,26.43,26.43,0,0,1,8.55,1.34A20,20,0,0,1,380.2,43a17.63,17.63,0,0,1,4.47,6.15,19.54,19.54,0,0,1,1.57,7.94,20.14,20.14,0,0,1-3.08,11.29,17.38,17.38,0,0,1-7.76,6.44,24.61,24.61,0,0,1-10.17,2.06,26,26,0,0,1-8.51-1.35m-3.07-11.9a17.31,17.31,0,0,0,2.29,5.11,11.21,11.21,0,0,0,3.74,3.53,9.58,9.58,0,0,0,4.92,1.25,11.3,11.3,0,0,0,4.63-1,11.65,11.65,0,0,0,4-3,15,15,0,0,0,2.93-5.19,21.36,21.36,0,0,0,1.07-7.07,23.79,23.79,0,0,0-.79-6.23,16.27,16.27,0,0,0-2.3-5.13,11.45,11.45,0,0,0-3.78-3.51,9.84,9.84,0,0,0-4.93-1.24,11.29,11.29,0,0,0-4.62,1,11.9,11.9,0,0,0-4,3,15.15,15.15,0,0,0-2.92,5.2,21.8,21.8,0,0,0-1,7.06,23.61,23.61,0,0,0,.8,6.22" />
    <path class="cls-1"
        d="M399.76,53.66v1a47.64,47.64,0,0,0,.6,8.36,14.75,14.75,0,0,0,3.06,7.39,9.16,9.16,0,0,0,7.23,3c3.57,0,6.29-1.25,8.14-3.74q3-4,3-12.47V50.83c0-2.41-.1-5.19-.28-8.33q-.13-2.52-.27-3.9h5.65c-.21,2.39-.36,5-.43,7.82,0,1.47-.08,2.94-.07,4.41v6.39q0,10.17-4.4,15-4.12,4.55-12.23,4.55-7.31,0-11.53-2.39a12.05,12.05,0,0,1-5.47-6.33,25,25,0,0,1-1.38-9V51c0-2.07-.09-4.88-.25-8.41l-.25-3.93h9.39l-.22,3.5L400,43.57,399.92,45c-.05.94-.08,1.74-.08,2.41Z" />
    <path class="cls-1"
        d="M444.89,56.5l.93,0a6.83,6.83,0,0,0,2.38-.27,6,6,0,0,0,3.22-2.08A8.51,8.51,0,0,0,453,48.65a7.17,7.17,0,0,0-1.84-5.22,5.65,5.65,0,0,0-1.8-1.21,6.71,6.71,0,0,0-2.15-.52c-.83,0-1.47-.05-1.92-.05s-1.13,0-2,0V63.76c0,2.9.11,5.66.33,8.3.06,1,.17,2.32.36,3.87h-9.58q.27-3.63.43-7.8c.05-1.44.08-2.9.08-4.38V50.86q0-4-.36-8.37c-.07-1.38-.18-2.68-.32-3.89h4.59c1.81,0,3.75-.06,5.82-.21s3.35-.19,4.25-.2a21.23,21.23,0,0,1,5.21.6,9.33,9.33,0,0,1,4,2.11c1.79,1.63,2.68,4.11,2.69,7.41q0,5.76-4,8.77a12.92,12.92,0,0,1-4.52,2.09,23,23,0,0,1-5.87.62l-.6,0Z" />
</svg>