<?xml version="1.0" encoding="utf-8"?>
<!-- Generator: Adobe Illustrator 26.4.1, SVG Export Plug-In . SVG Version: 6.00 Build 0)  -->
<svg version="1.1" id="Layer_1" xmlns="http://www.w3.org/2000/svg" xmlns:xlink="http://www.w3.org/1999/xlink" x="0px" y="0px"
	 viewBox="0 0 256 257" style="enable-background:new 0 0 256 257;" xml:space="preserve">
<g>
	<path d="M201.8,156c0,2.1,0,4.2,0,6.6c2.4,0.2,4.4,0.4,6.8,0.6c0.2,2.3,0.4,4.7,0.5,7.1c-6.9-0.2-13.9-0.4-20.8-0.6
		c-0.4-2.1-0.9-4.3-1.3-6.4c-2.3,0-4.3,0-6.8,0c0.1,2.4,0.2,4.4,0.3,6.8c3-0.2,5.5-0.4,7.9-0.5c-0.3,2.3-0.7,4.6-1.1,7.1
		c2.9,0.3,4.9,0.5,7,0.7c0.3,2.3,0.5,4.4,0.7,6.2c2.4,0,4.3,0,6.4,0c0.3-2.4,0.5-4.4,0.7-6.4c2.4-0.2,4.3-0.3,6.8-0.5
		c0-2.4,0-4.5,0-6.6c2.1,0,4.2,0,7.1,0c0,3.5,0.1,6.9,0,10.3c-0.1,2.5,0.8,3.6,3.4,3.5c3.3-0.2,6.6-0.2,9.9-0.2l-0.1-0.1
		c0.4,2.3,0.8,4.6,1.4,7.4c-5.2,0-9.4,0-14.1,0c0,2.4,0,4.4,0,6.9c4.4,0,8.7,0,13.4,0c0,2.5,0,4.5,0,6.9c-2,0.2-4,0.4-6.4,0.6
		c0,4.8,0,9.5,0,14.5c4.7,0,9.1,0,13.8,0c0.2-2.2,0.5-4.3,0.7-6.5c2.1,0,4.1,0,6.3,0c0,4.4,0,8.7,0,13.4c-9.1,0-18.3,0-27.8,0
		c-0.3-2-0.5-4.1-0.8-6.4c-2.1,0-4.1,0-6.5,0c-0.2,2-0.4,4-0.8,7.2c-9.7,0-19.4,0-29.1,0c0.4-7.3,0.8-14.7,1.2-22
		c-3.1,0-5.2,0-7.3,0c-0.2,2.6-0.4,4.9-0.6,7.3c-2.4,0.3-4.5,0.5-6.6,0.7c-0.2,2.3-0.3,4.3-0.5,6.7c-4.7,0-9.1,0-13.5,0
		c0,2.6,0,4.6,0,7.2c9.4,0,18.3,0,27.3,0c0.4,2.1,0.8,4.1,1.2,6.5c2,0.2,4.1,0.4,6.5,0.6c0,4.4,0,8.7,0,13.3c-2.2,0-4.2,0-6.5,0
		c-0.3-2-0.5-4.1-0.9-6.4c-4.6,0-9,0-13.6,0c-0.2,2.2-0.3,4.1-0.5,6.4c-2.1,0-4.2,0-6.7,0c0-4.4,0-8.6,0-13.8c-5,0-9.6,0-14.1,0
		c0,0,0.1,0.1,0.1,0.1c-0.3-2.2-0.5-4.5-0.8-6.8c-2.7-0.1-5-0.2-7.4-0.3c0,0,0.2,0.1,0.2,0.1c0.3-2.3,0.6-4.5,0.8-6.8
		c2.3-0.2,4.4-0.4,6.4-0.6c0-5.1,0-9.7,0-14.5c-2.4-0.2-4.3-0.3-6.4-0.4c-0.3-2.2-0.5-4.3-0.8-6.4c-2.3,0-4.3,0-6.6,0
		c-0.2,2.3-0.4,4.2-0.6,6.8c-4.6,0-9.2,0-13.7,0c-0.2,2.9-0.4,5.2-0.5,7.8c-2.5,0-4.6,0-6.7,0l0.2,0.1c0-7.1,0-14.2,0-21.7
		c-2.5-0.3-4.6-0.5-7.2-0.7c0-4.4,0-8.8,0-13.6c-5,0-9.4,0-14.2,0c0-4.8,0-9.2,0-13.8c4.6,0,9,0,13.7,0c0.3,2.1,0.5,4.2,0.8,6.6
		c4.4,0,8.6,0,13.6,0c0,4.8,0,9.1,0,13.7c2.6,0.2,4.5,0.4,7,0.6c0,2.3,0,4.5,0,6.7c-2.2,0.1-4.4,0.2-6.6,0.3c0,2.4,0,4.3,0,6.5
		c2.3,0,4.3,0,6.9,0c-0.1-2.5-0.3-4.8-0.4-7c4.6,0,9.2,0,14.3,0c0-2,0-4.1,0-6.4c-2-0.2-4.1-0.5-6.4-0.8c-0.2-2.1-0.4-4-0.7-6.2
		c-2.1-0.2-4.2-0.4-6.5-0.6c0-4.5,0-8.9,0-13.5c2.2,0,4.1,0,6.4,0c0.3,2.1,0.5,4.1,0.8,6.5c2.2,0.2,4.2,0.4,6.5,0.6
		c0.2,2.1,0.4,4.1,0.6,6.4c7,0,13.8,0,21,0c0-2,0-3.9,0-6.4c-4.3,0-8.7,0-13.6,0c0-2.8,0-5,0-7.2c0,0-0.1,0.1-0.1,0.1
		c2.1-0.1,4.2-0.3,6.9-0.4c0-4.6,0-9,0-13.4c2.6-0.3,4.7-0.5,6.9-0.7c0-2.6,0-4.9,0-7.7c-4.7,0-9,0-13.8,0c0-9.7,0-18.8,0-27.8
		c2.4,0,4.7,0,7.1,0c0,6.9,0,13.8,0,20.6c2.6,0,4.5,0,6.8,0c0-7.1,0-13.8,0-20.6c2.2-0.1,4.5-0.3,6.8-0.4c0.2-2.4,0.4-4.5,0.6-6.5
		c4.8,0,9.2,0,13.6,0c0,0-0.1-0.1-0.1-0.1c0.1,2.1,0.2,4.2,0.4,6.4c-2.6,0.3-4.6,0.5-7.2,0.8c0,4.4,0,8.7,0,13
		c-2.6,0.3-4.6,0.6-6.6,0.8c0,4.7,0,9.1,0,13.7c4.7,0,9,0,13.2,0l-0.1-0.1c0.3,2.6,0.5,5.2,0.8,7.8c-2.8,0.3-4.8,0.4-7.3,0.6
		c0,2.4,0,4.7,0,6.9c-2.2,0-4.5,0-6.6,0c0,9.5,0,18.5,0,27.5c2.4,0.2,4.3,0.4,6.8,0.6c0,4.7,0,9.1,0,13.5c2.6,0,4.5,0,6.7,0
		c0-6.9,0-13.6,0-20.5c-2.3-0.2-4.4-0.4-7.1-0.6c0-7.1,0-13.8,0-20.6c9.7,0,19.4,0.1,29.1,0.1L201.8,156z M152.1,191.1
		c-2.4,0-4.7,0-7,0c0,2.6,0,4.5,0,6.8c2.5,0,4.8,0,7,0c0,4.9,0,9.8,0,14.7c2.5,0,4.6,0,6.7,0c0.2-2.6,0.3-4.9,0.5-7.3
		c2.3-0.2,4.4-0.4,6.4-0.6c0-4.7,0-9.1,0-13.6c-2.5,0-4.6,0-6.8,0c0-2.2,0-4.4,0-6.9c-2.5,0-4.5,0-6.8,0
		C152.1,186.6,152.1,188.9,152.1,191.1z M188,191.1c0,7.5,0,14.5,0,21.5c7.1,0,13.8,0,20.6,0c0-7.4,0-14.4,0-21.5
		C201.6,191.1,195,191.1,188,191.1z"/>
	<path d="M86.6,68.5c4.8,0.4,9.6,0.8,14.7,1.2c0.5-3.2,0.8-5.7,1.2-8.2l-0.1,0.1c2.2,0.1,4.5,0.3,6.7,0.4l-0.1-0.1
		c0,2.4,0,4.8,0,7.8c5.1,0,9.5,0,13.9,0c0,4.8,0,9.1,0,13.5c-2.3,0.3-4.3,0.5-6.6,0.8c-0.2,3-0.5,5.8-0.7,8.5l0.1-0.1
		c-2.1-0.3-4.2-0.6-6.6-1c0,5.5,0,10.1,0,14.7c-2.3-0.1-4.6-0.3-7-0.4c0,5.3,0,9.9,0,14.4c-9.6,0-19.3,0-29.1,0c0,2.7,0,4.8,0,7
		c0,0,0.1-0.1,0.1-0.1c-4.7,0-9.4,0-14.1,0l0.2,0.2c0-2.4,0-4.8,0-7.1l-0.1,0.1c2.1-0.2,4.2-0.3,6.6-0.5c0.3-4.4,0.6-8.7,0.9-13.1
		c2-0.5,4-0.9,6.3-1.4c0-4.4,0-8.8,0-13.2c-2.4-0.3-4.4-0.5-6.5-0.8c-0.2-2.6-0.3-4.9-0.5-7.2c-2.5,0-4.5,0-6.7,0
		c-0.2,2.6-0.4,4.8-0.6,7.2c-2.3,0.3-4.4,0.6-6.3,0.9c0,2.3,0,4.2,0,6.7c4.7,0,9.1,0,13.5,0c0.4,3,0.7,5.4,1,7.8
		c-5.1-0.3-10.1-0.6-15.2-0.9c-2-0.1-4,0-6.6,0c0-4.6,0-9,0-13.7c-2.7,0-4.7,0-7.2,0c-0.2,2-0.4,4-0.6,6.3c-2.4,0.2-4.6,0.5-6.9,0.7
		l0.1,0.1c0-2.4,0-4.8,0-7.2c-2.7-0.3-4.8-0.5-7-0.7c0-2.6,0-4.9,0-7.2l-0.1,0.2c4.6-0.3,9.1-0.5,14.1-0.8c0-4.5,0-8.7,0-13.4
		c2.4,0,4.5,0,7,0c0.2,2,0.5,4,0.8,6.4c2.5,0.3,4.9,0.5,7.3,0.7c-0.1,2.1-0.2,4.1-0.4,6.3c2.6,0,4.5,0,6.7,0c0-2.2,0-4.1,0-6.7
		c-2.3,0.2-4.3,0.3-6.4,0.4c-0.1-2.3-0.2-4.6-0.4-7.5c4.8,0,9.2,0,14.1,0c0-12,0-23.3,0-34.8c2.9-0.5,5.3-0.9,7.6-1.4
		c-0.1,2.4-0.3,4.8-0.5,8c2.9-0.4,5.1-0.6,7.3-0.9c0,2.4,0,4.8,0,7.4c2.5,0,4.5,0,6.6,0c0-2.3,0-4.4,0-6.3c-2.5-0.3-4.6-0.6-6.7-0.9
		c0-2,0-4.1,0-6.1c-2.7-0.5-4.7-0.8-6.8-1.2c-0.1-1.9-0.2-3.8-0.3-6c2.5-0.2,4.4-0.4,6.8-0.6c0.2-2.4,0.4-4.8,0.6-7.4
		c2.2,0,4.1,0,6.7,0c0,4.7,0,9.5,0,14.3c2.6,0.2,4.6,0.4,6.9,0.6c0,6.8,0,13.5,0,20.7c-2,0.2-4.1,0.4-6.3,0.7
		C87.4,60.1,87,64.3,86.6,68.5c-1.9,0.5-3.9,1-6.1,1.5c-0.2,2.1-0.5,4.2-0.7,6.2c-2.4,0.3-4.5,0.6-6.5,0.8c0,2.3,0,4.1,0,6.1
		c4.7,0,9.2,0,14.5,0C87.3,78,86.9,73.2,86.6,68.5z M86.6,99.5c0.3-2.5,0.6-5,1-7.5c-2.9,0-4.9,0-7.1,0c0,2.3,0,4.2,0,6.1
		C82.6,98.5,84.6,99,86.6,99.5c0.2,2.2,0.4,4.4,0.5,6.6c-2.2-0.1-4.4-0.2-6.5-0.4c0,2.8,0,4.8,0,6.8c2.4,0,4.3,0,6.7,0
		c-0.1-2.4-0.2-4.5-0.3-6.5c2.4-0.2,4.8-0.4,7.3-0.7c0.2-2.3,0.4-4.2,0.6-6.3c2.3-0.3,4.4-0.5,6.6-0.8c0-2.3,0-4.3,0-6.3
		c-2.5,0-4.5,0-6.7,0c-0.1,2.3-0.2,4.2-0.4,6.2C91.6,98.6,89.1,99,86.6,99.5z M108.8,77.1c-4.6,0-9.2,0-14,0c0,2.1,0,4,0,6.2
		c4.8,0,9.3,0,14,0C108.8,81.2,108.8,79.4,108.8,77.1z M79.9,62.2c0-2.5,0-4.4,0-6.3c-2.4,0-4.5,0-6.4,0c0,2.3,0,4.2,0,6.3
		C75.7,62.2,77.7,62.2,79.9,62.2z"/>
	<path d="M115.9,240.9c0,2.1,0,4.3,0,6.8c-4.7,0-9,0-13.8,0c-0.2-1.9-0.3-3.8-0.6-6.4c-4.5,0-9,0-13.5,0c-0.6-3-1.1-5.4-1.6-7.8
		c5,0,10.1,0,15,0c0-2.2,0-4.1,0-6c-4.8,0-9.3,0-13.6,0c-0.5,2.3-0.9,4.2-1.3,6.1c-1.9,0.2-3.9,0.3-6,0.5c-0.2-2.4-0.4-4.3-0.6-6.7
		c-2-0.2-4.1-0.4-6.4-0.6c-0.2-2.1-0.5-4.2-0.8-6.6c-2.1-0.1-4-0.3-6.3-0.4c0-2.1,0-4.1,0-6.5c2-0.2,4.1-0.4,6.4-0.7
		c0-2.5,0-4.8,0-7.3c-2.1-0.2-4.2-0.4-6.4-0.7c0-4.7,0-9.3,0-13.9l-0.2,0.1c4.5,0.1,9,0.2,13.6,0.3c0,7.1,0,14.3,0,21.3
		c2.9,0.3,4.9,0.6,6.8,0.8c0.4,2,0.8,4.1,1.2,6.4c2.1,0,4.1,0,6.3,0c0-2.3,0-4.4,0-6.9c-2.8,0.2-5.3,0.4-7.7,0.6
		c0.4-7.4,0.8-14.8,1.2-22.7c-3.5,0.3-5.8,0.4-8.1,0.6c0-2.3,0-4.6,0-7c0,0-0.1,0.1-0.1,0.1c4.7-0.3,9.4-0.6,14.7-0.9
		c0,7.3,0,14,0,21c2.6,0.2,4.6,0.4,7.2,0.6c0.2,2.4,0.4,4.7,0.6,7.5c2.4,0.1,4.7,0.2,7,0.3c0,0-0.2-0.1-0.2-0.1c0,2.2,0,4.5,0,6.8
		c2.6,0.2,4.7,0.4,7,0.7c0,2.5,0,4.6,0,6.7l0.1-0.1c-2.2,0.1-4.5,0.3-6.8,0.4c0,4.7,0,9.1,0,13.7c2.5,0,4.6,0,6.8,0L115.9,240.9z"/>
	<path d="M237.8,92.1c2.1-0.2,4.2-0.4,6.6-0.6c0,7.3,0,14,0,21.2c-4.7,0-9.1,0-13.5,0c-0.6,5.3-1.1,10-1.6,14.7l0,0
		c-1.8-0.3-3.7-0.6-5.9-0.9c0,2.7,0,4.7,0,7c2.3,0.2,4.3,0.4,7.1,0.7c-0.5,2.6-0.9,4.9-1.3,7.2l0,0c-1.9-0.2-3.7-0.5-5.7-0.7
		c-0.5,5.6-0.9,10.7-1.3,15.7l0.1-0.1c-1.9-0.3-3.8-0.6-5.9-1c-0.2-2-0.4-3.9-0.6-6.2c-2.1,0-4.1,0-6.7,0c-0.2,1.9-0.4,3.9-0.6,6.4
		c-2.3,0.1-4.6,0.3-6.8,0.4c0,0,0.1,0.1,0.1,0.1c0.1-4.9,0.1-9.9,0.1-14.8c4.6-0.3,9.1-0.5,13.6-0.7c0-7.1,0-13.8,0-20.3
		c-2.5,0-4.5,0-7,0c0,4.7,0,8.9,0,13.3c-2.5,0.3-4.5,0.5-7,0.8c0.2,2.6,0.3,4.9,0.5,7.1c-2.4-0.4-4.8-0.7-7.1-1.1c0-4.6,0-9,0-13.3
		c2.3-0.2,4.2-0.4,6.8-0.7c0-6.9,0-13.6,0-20.4l-0.1,0.1c11.9,0,23.7,0,36.1,0c0-5.5,0-9.8,0-14.1L237.8,92.1z"/>
	<path d="M152,34c-0.1-2-0.2-4-0.4-6.4c-2.1-0.2-4.1-0.5-6.6-0.8c-0.2-2.2-0.4-4.5-0.6-7.2c-2.1-0.3-4.1-0.5-6.6-0.8c0-2,0-4,0-6.4
		c6.9,0,13.6,0,21,0c0,4.8,0,9.6,0,14.5c2.6,0,4.5,0,6.8,0c0.2-2.4,0.3-4.6,0.5-7.3c2.1,0,4.1,0,6.5,0c0.2,2.3,0.4,4.5,0.6,7.6
		c2.1-0.2,4.1-0.4,6.1-0.6l-0.1-0.1c0.5,2.4,0.9,4.8,1.4,7.2c6.8,1.1,6.7,1.1,6.8,8.5c0.1,8.9,0.2,17.9,0.3,26.8
		c0,0,0.2-0.1,0.2-0.1c-6.5,0.2-12.9,0.5-19.4,0.4c-3.4,0-6.8-0.6-10.2-1c0,0,0.1,0,0.1,0c0.1-2.2,0.3-4.4,0.4-6.6
		c2.3,0.2,4.6,0.4,6.9,0.6c0.2-2.7,0.4-4.6,0.6-7.2c2.3,0.4,4.2,0.8,6.2,1.2c0.3,1.9,0.7,3.8,1,5.6c2.4,0,4.4,0,6.4,0
		c0-2.3,0-4.2,0-6.9c-2.8,0.5-5.1,1-7.5,1.4c0.3-4.9,0.5-9.8,0.8-15.5c-5.3,0-9.9,0-14.4,0c0-2.2,0-4.4,0-6.6
		c-2.8-0.2-4.9-0.4-7-0.6L152,34z"/>
	<path d="M86.6,141.4c0.4,2.2,0.8,4.5,1.2,7.1c2,0.2,4,0.4,6.4,0.7c0,2,0,3.9,0,6.8c-4.8,0-9.5,0-14.3,0l0.1,0.1c0-2.2,0-4.5,0-7.1
		c-2.7,0-4.9,0-7.1,0l0.1,0.1c0-7.4,0-14.8,0-22.1l-0.1,0.1c7,0,14.1,0,21.2,0c0.3,2.4,0.5,4.5,0.8,6.9c9.6,0,18.8,0,28.1,0
		c0,2.1,0,4.2,0,6.9c5,0,9.4,0,14,0c0.3,2.9,0.5,5.3,0.7,7.7c2.5,0.3,4.6,0.5,7.2,0.8c0,4.8,0,9.3,0,13.7c0,0,0.1-0.1,0.1-0.1
		c-2.3,0-4.6,0-7.2,0c-0.3-2.5-0.5-4.6-0.7-7.1c-4.5,0-8.9,0-13.7,0c-0.2-2.4-0.4-4.3-0.6-6.7c-2-0.2-4.1-0.4-6.5-0.6
		c-0.2-2.3-0.4-4.6-0.6-7.3c-2,0-4.1,0-6.6,0c0,4.5,0,9.1,0,14.1c-2.5,0-4.5,0-6.9,0c-0.2-1.9-0.4-3.8-0.7-6.2
		c-2.2-0.2-4.4-0.4-6.8-0.7c-0.1-2.5-0.3-4.7-0.5-7.8C91.6,141,89.1,141.2,86.6,141.4c0.2-2.3,0.6-4.6,0.9-7.3c-2.8,0-4.8,0-7,0
		c0,2.3,0,4.3,0,6.3C82.8,140.8,84.7,141.1,86.6,141.4z"/>
	<path d="M9.3,198.2c16.6,0,32.7,0,49.1,0c0,16.5,0,32.9,0,49.6c-16.3,0-32.5,0-49.1,0C9.3,231.3,9.3,215,9.3,198.2z M16.3,240.6
		c12,0,23.5,0,35.2,0c0-12,0-23.6,0-35.4c-11.8,0-23.4,0-35.2,0C16.3,217.1,16.3,228.7,16.3,240.6z"/>
	<path d="M9.2,62c0-16.5,0-32.9,0-49.5c16.4,0,32.5,0,49,0c0,16.4,0,32.7,0,49.5C42.1,62,25.9,62,9.2,62z M16.2,55.6
		c11.4,0,22.3,0,33.2-0.1c0.8,0,2.2-1.3,2.2-2c0.1-11.3,0.1-22.5,0.1-33.9c-12.2,0-23.7,0-35.5,0C16.2,31.5,16.2,43.1,16.2,55.6z"/>
	<path d="M244.5,12.5c0,16.7,0,33,0,49.6c-16.5,0-32.8,0-49.4,0c0-16.6,0-32.9,0-49.6C211.5,12.5,227.7,12.5,244.5,12.5z
		 M237.5,19.5c-12,0-23.5,0-35.2,0c0,12.1,0,23.9,0,35.7c11.9,0,23.5,0,35.2,0C237.5,43.3,237.5,31.7,237.5,19.5z"/>
	<path d="M187.8,69c11.6,0,23.1,0,35.3,0c-0.2,3.3-0.3,5.7-0.5,8.2c0,0,0.2-0.2,0.2-0.2c-2.1,0-4.2,0-6.4,0
		c-0.3,2.2-0.5,4.2-0.7,6.2c-2.2,0.3-4.3,0.5-6.8,0.8c0,4.8,0,9.3,0,14.1c-2.5,0.3-4.6,0.6-7.1,0.9c0,2.5,0,4.8,0,7l0.1-0.1
		c-2.2,0-4.5,0-6.9,0c-0.3,2.3-0.5,4.3-0.7,6.5c-2.3,0-4.4,0-6.5,0c-0.2-2.3-0.4-4.2-0.7-6.5c-2.6,0-5,0-7.4,0l0.1,0.1
		c-0.1-2.2-0.3-4.4-0.4-6.7c0,0-0.1,0.1-0.1,0.1c1-0.3,1.9-0.8,2.8-0.7c4.6,0.7,5.8-1.5,5.3-5.7c-0.3-3-0.1-6.1-0.1-9.1
		c2.8,0,4.7,0,6.9,0c0.2,2.5,0.4,4.8,0.6,7.3c2.2,0,4.3,0,6.5,0c0-4.9,0-9.4,0-14.9c-4.6,0.4-9,0.7-13.3,1l0.1,0.1
		c-0.1-2.9-0.2-5.7-0.3-8.6L187.8,69z"/>
	<path d="M37.1,177c0-4.4,0-8.9,0-14c-4.6,0-9.1,0-13.9,0c0-2.8,0-4.9,0-7c0,0-0.1,0.1-0.1,0.1c4.6,0,9.1,0,14.1,0c0-2.9,0-5,0-7.1
		l-0.2,0.2c2.4,0,4.7-0.1,7.1-0.1c0.3,2.2,0.6,4.5,0.9,6.6c4.7,0,8.9,0,13.3,0c0.3-2.4,0.5-4.5,0.7-6.6c4.7,0,9.4,0.1,14.1,0.1
		l-0.1-0.1c0,2.4,0,4.8,0,7.1l0.1-0.1c-2.1,0-4.3,0-6.8,0c-0.2,2.2-0.4,4.2-0.7,6.8c-4.5,0-8.8,0-14.1,0c0.3,2.7,0.6,4.9,0.9,7
		l0.1-0.1c-2.4,0.2-4.8,0.4-7.6,0.6c-0.2,2-0.5,4.1-0.8,6.6c-2.4,0-4.8,0-7.2,0C37,176.8,37.1,177,37.1,177z"/>
	<path d="M202.1,247.7c0-4.4,0-8.6,0-13.3c11.7,0,23.3,0,35.3,0c0.2,2,0.3,4,0.5,6.2c2.1,0.2,4.2,0.5,6.5,0.7c0,2.1,0,4,0,6.3
		c-6.8,0-13.7,0-20.9,0c-0.2-2-0.4-3.9-0.7-6.3c-4.4,0-8.7,0-13.6,0c-0.2,1.9-0.4,4-0.7,6.3C206.5,247.7,204.5,247.7,202.1,247.7z"
		/>
	<path d="M123.3,33.5c-4.6,0.3-9.1,0.6-14,0.9c-0.2-2.5-0.4-4.4-0.6-6.8c-2,0-4,0-6.5,0c-0.2,1.9-0.4,3.8-0.7,6.1c-2,0-4.1,0-6.5,0
		c0-6.9,0-14,0-21.3c4.5,0,8.9,0,13.6,0c0.2,2.1,0.4,4.1,0.6,6.8c2.2-0.2,4.3-0.4,6.5-0.5l-0.1-0.1c0.2,2.7,0.4,5.5,0.7,8.4
		c2.2,0.2,4.1,0.3,6.5,0.5c0.2,2.1,0.3,4.1,0.5,6.2C123.2,33.7,123.3,33.5,123.3,33.5z"/>
	<path d="M30.1,99c0,2,0,3.9,0,6.3c-7,0-13.9,0-20.9,0c0-11.9,0-23.6,0-35.6c2.2,0,4.1,0,6.4,0c0.3,2.3,0.5,4.4,0.7,6.6
		c2.2,0.3,4.3,0.5,6.8,0.8c0,2.5,0,4.8,0,7.1c0,0,0.1-0.2,0.1-0.2c-2.2-0.1-4.5-0.2-7-0.3c0,5.2,0,9.8,0,14.7
		c4.8,0.3,9.4,0.5,14,0.8L30.1,99z"/>
	<path d="M222.4,156.4c7.2,0,14.5,0,22,0c0,4.2,0,8.4,0,13.2c-4.5,0-8.8,0-13.6,0c-0.3,2.5-0.5,4.6-0.8,7c-2.1,0-4.2,0-6.4,0
		C223.2,169.8,222.8,163.1,222.4,156.4C222.4,156.4,222.4,156.4,222.4,156.4z"/>
	<path d="M44.2,134.1c0-6.9,0-13.8,0-20.9c5.3,0,9.6,0,14.2,0c0.2,2.4,0.5,4.7,0.7,6.9c0,0,0.1-0.1,0.1-0.1c-2.4,0-4.8,0-7.1,0
		c0,2.5,0,4.4,0,6.4c2.6,0.3,4.8,0.5,7.1,0.7l-0.2-0.2c0.1,2.4,0.1,4.8,0.2,7.2c-5.1-0.1-10.1-0.1-15.2-0.2L44.2,134.1z"/>
	<path d="M23.6,184.4c0-4.6,0-9.2,0-14.1c2,0,4,0,6.3,0c0.2,2,0.4,3.9,0.6,6.7c2.2,0,4.4,0,6.6,0c0,0-0.2-0.2-0.2-0.2
		c0.2,2.1,0.4,4.2,0.6,6.7c2.2,0.2,4.3,0.4,6.7,0.7c0,2.1,0,4.2,0,6.5c-4.5,0-8.9,0-13.7,0c-0.2-2.2-0.4-4.2-0.7-6.8
		c-2.3,0.1-4.4,0.2-6.5,0.3L23.6,184.4z"/>
	<path d="M123.1,48c0.1-4.8,0.2-9.6,0.3-14.4c0,0-0.1,0.1-0.1,0.1c2.1,0.2,4.1,0.4,6.1,0.6c1.9-7.3,1.9-7.3,7.5-6.8
		c0,4.4,0,8.9,0,13.4l0.1-0.1c-4.8-0.2-8.2,1.1-6.9,7.4c-2.8-0.2-5-0.3-7.2-0.5L123.1,48z"/>
	<path d="M238.2,84.5c-0.2,2.5-0.3,5.1-0.5,7.6c0,0,0.1-0.1,0.1-0.1c-5,0-10,0.1-15,0.1c0,0,0.1,0.1,0.1,0.1c0-5.1,0-10.2,0-15.2
		c0,0-0.2,0.2-0.2,0.2c2.2-0.2,4.5-0.4,7.1-0.7c0.3,2.4,0.5,4.4,0.8,6.6C233.3,83.6,235.8,84,238.2,84.5L238.2,84.5z"/>
	<path d="M23.3,149.1c-0.1-5-0.1-10-0.2-15l-0.1,0.2c2.2-0.2,4.5-0.3,7-0.5c0.2,2.4,0.3,4.4,0.5,6.7c2.3,0.2,4.5,0.4,6.7,0.6
		c0,0-0.1-0.1-0.1-0.1c0,2.7,0,5.4,0,8.1c0,0,0.2-0.2,0.2-0.2c-4.7,0-9.4,0-14.1,0L23.3,149.1z"/>
	<path d="M109.1,62c0.1-4.8,0.2-9.7,0.4-14.5c0,0-0.1,0.1-0.1,0.1c4.6,0.1,9.1,0.3,13.7,0.4c0,0-0.2-0.1-0.2-0.1c0,2.4,0,4.8,0,7.3
		c-2.5,0.3-4.6,0.6-6.6,0.8c-0.2,2.2-0.5,4.1-0.7,6.5c-2.4-0.2-4.5-0.4-6.6-0.6C109,61.9,109.1,62,109.1,62z"/>
	<path d="M129.9,233.9c0.1,2.1,0.2,4.2,0.4,7c-5,0-9.7,0-14.3,0l0.1,0.1c0-4.7,0-9.4,0-14.1l-0.1,0.1c2.2,0,4.5,0,6.8,0
		c0.3,2.6,0.5,4.6,0.7,7c2.4,0,4.5,0,6.6,0L129.9,233.9z"/>
	<path d="M179.5,26.6c0.4-4.5,0.8-9.1,1.3-14c2,0,4,0,6.4,0c0,4.7,0,9.3,0,14.7C184.5,27,182,26.8,179.5,26.6
		C179.4,26.5,179.5,26.6,179.5,26.6z"/>
	<path d="M229.3,127.5c4.9-0.3,9.8-0.7,15-1c0,2.8,0,4.9,0,7.2c-4.7,0-9.1,0-13.4,0C230.4,131.4,229.9,129.4,229.3,127.5
		C229.4,127.4,229.3,127.5,229.3,127.5z"/>
	<path d="M238.3,84.5c-0.3-4.7-0.6-9.5-0.9-14.7c2.5,0,4.6,0,6.9,0c0,4.4,0,8.8,0,13.1C242.2,83.5,240.2,84,238.3,84.5
		C238.2,84.5,238.3,84.5,238.3,84.5z"/>
	<path d="M80,241.4c0,2.2,0,4,0,6.2c-4.5,0-9,0-13.8,0c0-2.1,0-4,0-6.2C70.9,241.4,75.4,241.4,80,241.4z"/>
	<path d="M237.8,184.1c2.1,0,4.2,0,6.6,0c0,4.6,0,8.8,0,13.5c-2.1,0-4.1,0-6.5,0c0-4.5,0-9.1,0-13.6
		C237.9,183.9,237.8,184.1,237.8,184.1z"/>
	<path d="M66.4,190.8c-4.6,0-9.2,0-14.2,0c0-2.1,0-4.2,0-6.6c4.3,0,8.7,0,13.5,0c0.2,2.2,0.3,4.5,0.5,6.7
		C66.2,190.9,66.4,190.8,66.4,190.8z"/>
	<path d="M23.4,184.2c-0.2,2-0.4,4-0.6,6.3c-4.4,0-8.7,0-13.5,0c0-1.9,0-4,0-6.2c4.8,0,9.5,0,14.3,0
		C23.6,184.4,23.4,184.2,23.4,184.2z"/>
	<path d="M229.3,141.5c2.6-0.2,5.2-0.5,8.1-0.8c0,2.9,0,5.1,0,7.7c-2.1,0-4.2,0-6.4,0C230.4,146.2,229.9,143.8,229.3,141.5
		C229.3,141.5,229.3,141.5,229.3,141.5z"/>
	<path d="M16.4,148.9c-2.3,0-4.5,0-7.1,0c0-2.8,0-5,0-7.6c2,0,4,0,6.4,0c0.2,2.6,0.4,5.2,0.6,7.8L16.4,148.9z"/>
	<path d="M136.9,41c2.7,0,5.4,0,8.2,0c0,0-0.1-0.1-0.1-0.1c0,2.4,0.1,4.7,0.1,7.1c-2.4,0-4.8,0-7.2,0c-0.3-2.6-0.5-4.9-0.8-7.1
		C137,40.9,136.9,41,136.9,41z"/>
	<path d="M145.4,240.6c-2.4,0.2-4.8,0.3-7.5,0.5c-0.3-2.7-0.6-4.9-0.9-7.2c0,0-0.1,0.1-0.1,0.1c2.7,0,5.4,0,8.2,0
		c0,0-0.1-0.1-0.1-0.1c0.1,2.3,0.2,4.5,0.3,6.8L145.4,240.6z"/>
	<path d="M229.4,183.7c0.5-2,1-4,1.5-6.4c1.9,0,3.9,0,6.4,0c0.1,2.3,0.3,4.5,0.5,6.8c0,0,0.1-0.1,0.1-0.1c-2.9-0.1-5.8-0.2-8.7-0.3
		C229.3,183.6,229.4,183.7,229.4,183.7z"/>
	<path d="M23.6,127.5c-0.2-2.4-0.4-4.8-0.6-7.5c2.6,0,4.5,0,6.8,0c0,2.1,0,4.1,0,6.1C27.6,126.6,25.6,127,23.6,127.5
		C23.5,127.4,23.6,127.5,23.6,127.5z"/>
	<path d="M23.1,134.1c-2.1-0.2-4.2-0.4-6.7-0.6c0-2.1,0-4.2,0-7c2.5,0.3,4.9,0.6,7.3,0.9c0,0-0.1-0.1-0.1-0.1
		c-0.2,2.3-0.4,4.6-0.6,6.9C22.9,134.3,23.1,134.1,23.1,134.1z"/>
	<path d="M37.2,141.1c0-2.1,0-4.2,0-7c2.6,0,4.8,0,7,0c0,0-0.1-0.1-0.1-0.1c0,2.4,0.1,4.7,0.1,7.1c-2.4,0-4.7-0.1-7.1-0.1
		L37.2,141.1z"/>
	<path d="M137,233.9c-2.4,0-4.8,0-7.1,0c0,0,0.2,0.2,0.2,0.2c0.2-2.2,0.4-4.5,0.6-7c2.4,0,4.4,0,6.4,0l-0.2-0.1c0,2.4,0,4.8,0,7.1
		C136.9,234.1,137,233.9,137,233.9z"/>
	<path d="M145.3,240.7c1.9,0.2,3.9,0.4,6.2,0.6c0,2.1,0,4.1,0,6.4c-2.1,0-4.1,0-6.9,0c0.3-2.5,0.5-4.8,0.8-7.2
		C145.4,240.6,145.3,240.7,145.3,240.7z"/>
	<path d="M15.6,169.7c-2.2,0-4.1,0-6.3,0c0-2.1,0-4.1,0-6.5c2,0,4.1,0,6.3,0C15.6,165.4,15.6,167.4,15.6,169.7z"/>
	<path d="M16.2,149c2.4,0,4.7,0.1,7.1,0.1c0,0-0.2-0.2-0.2-0.2c0,2.4,0,4.8,0,7.1c0,0,0.1-0.1,0.1-0.1c-2.1-0.1-4.3-0.2-6.9-0.3
		c0-2.3,0-4.6,0-6.8C16.4,148.9,16.2,149,16.2,149z"/>
	<path d="M72.9,177.3c2.2-0.1,4.5-0.2,7.4-0.4c-0.3,2.9-0.5,5.2-0.7,7.6c0,0,0.1-0.1,0.1-0.1c-1.9-0.3-3.8-0.6-6.3-0.9
		c-0.1-2-0.3-4.2-0.4-6.4L72.9,177.3z"/>
	<path d="M73,177.1c-2.1-0.1-4.2-0.2-6.6-0.4c0-2.2,0-4.2,0-6.5c2.1,0,4.2,0,6.5,0c0,2.5,0,4.8,0,7C72.9,177.3,73,177.1,73,177.1z"
		/>
	<path d="M145.1,41c-0.1-2.1-0.2-4.2-0.3-6.5c2.7-0.2,5-0.3,7.3-0.5c0,0-0.1-0.1-0.1-0.1c0,2.4,0.1,4.7,0.1,7.1
		c-2.4,0-4.7-0.1-7.1-0.1C144.9,40.9,145.1,41,145.1,41z"/>
	<path d="M52.5,169.7c1.8,0.1,3.6,0.3,5.8,0.5c0,2.1,0,4.1,0,6.4c-2,0-3.9,0-6.6,0c0.3-2.4,0.6-4.7,0.9-7
		C52.6,169.6,52.5,169.7,52.5,169.7z"/>
	<path d="M80,155.9c0,2.1,0,4.2,0,6.7c-2.2,0-4.1,0-6.8,0c0-2.2,0-4.4,0-6.7l-0.1,0.1c2.4,0,4.7,0,7.1,0L80,155.9z"/>
	<path d="M66.3,12.4c2.2,0,4.1,0,6.4,0c0,2.2,0,4.2,0,6.5c-2.1,0-4.1,0-6.4,0C66.3,16.8,66.3,14.9,66.3,12.4z"/>
	<path d="M115.8,18.7c0.2-2,0.3-3.9,0.5-6.2c2.1,0,4,0,6.4,0c0,1.9,0,4,0,6.8c-2.3-0.2-4.6-0.5-7-0.7
		C115.6,18.6,115.8,18.7,115.8,18.7z"/>
	<path d="M44.3,112.6c-2.5,0-4.4,0-6.6,0c0-2.1,0-4,0-6.4c2,0,4.2,0,6.6,0C44.3,108.3,44.3,110.2,44.3,112.6z"/>
	<path d="M109.5,47.5c-2.3,0.3-4.7,0.6-7.3,1c0-2.7,0-4.6,0-6.8c2.2,0,4.2,0,6.4,0C108.9,43.8,109.1,45.7,109.5,47.5
		C109.4,47.6,109.5,47.5,109.5,47.5z"/>
	<path d="M102.5,61.5c-2.4,0.4-4.7,0.8-7.5,1.2c0-2.6,0-4.5,0-6.8c2.1,0,4.1,0,6.4,0c0.3,1.9,0.7,3.8,1,5.7
		C102.4,61.6,102.5,61.5,102.5,61.5z"/>
	<path d="M109,120.1c0-4.7,0-9.4,0-14.1c2.1,0,4.2,0,6.6,0c0.3,2.2,0.5,4.3,0.7,6.6c2.2,0.2,4.1,0.3,6.4,0.5c0.2,2,0.5,4.1,0.7,6.5
		c2.1,0,4,0,6.4,0c0.2-2,0.5-4,0.8-6.6c2.2,0,4.3,0,6.4,0c0,6.7,0,13.4,0,21.1c-4.7,0-9.4,0-14.1,0c0-2.3,0-4.5,0-7.1
		c-2.3-0.2-4.3-0.4-6.6-0.6c-0.2-2.1-0.4-4-0.7-6.3C113.4,120.1,111.2,120.1,109,120.1z"/>
	<path d="M145.4,56.4c-0.2,6.9-0.5,13.9-0.7,20.8c-0.1,4.5,0,8.9,0,13.9c-2.4,0-4.4,0-6.9,0c-0.2-2.2-0.4-4.5-0.6-7.1
		c-2.1-0.3-4.1-0.5-6.9-0.9c0-3.8-0.6-7.7,0.3-11.3c0.4-1.6,3.7-2.4,6.7-4.2c0-2.9,0-7.1,0-12.3C140.4,55.8,142.9,56.2,145.4,56.4
		C145.4,56.5,145.4,56.4,145.4,56.4z"/>
	<path d="M144.9,47.9c2.1,0.2,4.1,0.3,7,0.5c0-2.8,0-5.2,0-7.5c2.4,0,4.7,0,7.1,0c0,7,0,14.1,0,21.1c-2.1,0.1-4.2,0.3-6.8,0.4
		c-0.2-2.2-0.4-4.1-0.6-7c-2.1,0.3-4.2,0.6-6.2,1c0,0,0.1,0.1,0.1,0.1C145.3,53.6,145.1,50.8,144.9,47.9z"/>
	<path d="M151.9,113.1c0-2.2,0-4.5,0-7.4c-2.7,0.1-4.8,0.2-7,0.4c0-2.3,0-4.6,0-7.1c4.7,0,9.1,0,14.1,0c0,4.9,0,9.5,0,14.1
		C156.6,113.1,154.3,113.1,151.9,113.1z"/>
	<path d="M115.6,92.5c4.7-0.4,9.3-0.8,14.3-1.3c0,5.2,0,9.4,0,14c-2.1,0-4.2,0-6.5,0c-0.2-2.1-0.3-4-0.5-6.3
		c-2.1-0.3-4.2-0.5-6.5-0.8c-0.2-2-0.4-3.9-0.6-5.8C115.7,92.4,115.6,92.5,115.6,92.5z"/>
	<path d="M188.3,77.4c-0.4,1.9-0.9,3.7-1.3,5.8c-4.5,0-9,0-13.7,0c0-2.2,0-3.9,0-6.8C178.4,76.8,183.4,77.1,188.3,77.4
		C188.3,77.5,188.3,77.4,188.3,77.4z"/>
	<path d="M145,106c0,2.4,0,4.8,0,7.1c-2.7,0-5.5,0-8.2,0c0.3-2.2,0.6-4.5,1-7.1C140.3,106,142.7,106,145,106z"/>
	<path d="M158.4,68.4c0.2,2.4,0.5,4.9,0.8,7.9c-2.5,0.1-4.5,0.2-6.9,0.3c0-2.4,0-4.4,0-6.5C154.3,69.5,156.4,69,158.4,68.4
		C158.5,68.4,158.4,68.4,158.4,68.4z"/>
	<path d="M158.7,84.1c0,2.6,0,4.7,0,7.1c-2.3,0-4.4,0-6.6,0c0-2.5,0-4.8,0-7.1C154.5,84.1,156.7,84.1,158.7,84.1z"/>
	<path d="M179.5,99.4c-2-0.5-4-1-6.2-1.5c0-1.8,0-3.6,0-6c2-0.1,4-0.3,7-0.4C180,94.5,179.7,96.9,179.5,99.4
		C179.4,99.5,179.5,99.4,179.5,99.4z"/>
	<path d="M130,56c0,2.2,0,3.9,0,6c-2.2,0-4.2,0-6.6,0c0-1.9,0-3.8,0-6C125.5,56,127.5,56,130,56z"/>
	<path d="M179.6,140.8c0.4-2.1,0.7-4.1,1.2-6.6c2,0,4,0,6.4,0c0,2.1,0,4.1,0,6.5c-2.8,0-5.2,0-7.7,0
		C179.5,140.7,179.6,140.8,179.6,140.8z"/>
	<path d="M129.8,219.7c-2.4,0-4.3,0-6.5,0c0-2.1,0-4,0-6.4c2,0,4.1,0,6.5,0C129.8,215.4,129.8,217.4,129.8,219.7z"/>
	<path d="M195.2,198.2c2.2,0,4.1,0,6.3,0c0,2.1,0,4,0,6.3c-1.9,0-3.9,0-6.3,0C195.2,202.8,195.2,200.7,195.2,198.2z"/>
	<path d="M151.9,190.9c2.4,0,4.7,0,7.1,0c0,2.1,0,4.2,0,6.8c-2.6,0.1-4.9,0.2-7.1,0.3C151.9,195.7,151.9,193.3,151.9,190.9z"/>
	<path d="M102,119.9c2.4,0,4.7,0,7.1,0c-0.1,2-0.2,4-0.4,6.3c-2.1,0-4.1,0-6.8,0C102,124.1,102,122,102,119.9z"/>
	<path d="M44.1,141c5,0,10.1,0,15.1,0c0,2.7,0,5.4,0,8.1c-5.1,0-10.1,0-15.2,0C44,146.4,44,143.7,44.1,141z"/>
	<path d="M59.1,141.1c0-2.4,0-4.8,0-7.1c2.1,0,4.2,0,6.7,0c0,2.2,0,4.2,0,6.5C63.5,140.6,61.3,140.9,59.1,141.1z"/>
	<path d="M222.8,92.1c0,2,0,3.9,0,5.8c-6.6,1.4-6.9,1.1-6.3-6.3c2.1,0.2,4.3,0.4,6.4,0.5C222.9,92.2,222.8,92.1,222.8,92.1z"/>
	<path d="M44.3,213.3c0,7.1,0,13.7,0,20.5c-7,0-13.8,0-20.8,0c0-6.8,0-13.5,0-20.5C30.4,213.3,37.1,213.3,44.3,213.3z"/>
	<path d="M23.4,47.9c0-6.8,0-13.3,0-20.3c6.9,0,13.7,0,20.9,0c0,6.8,0,13.4,0,20.3C37.4,47.9,30.5,47.9,23.4,47.9z"/>
	<path d="M209.2,47.9c0-6.7,0-13.3,0-20.3c6.7,0,13.4,0,20.6,0c0,6.5,0,13.2,0,20.3C223.2,47.9,216.3,47.9,209.2,47.9z"/>
</g>
</svg>
